<?xml version="1.0" encoding="UTF-8"?>
<!DOCTYPE svg PUBLIC "-//W3C//DTD SVG 1.1//EN" "http://www.w3.org/Graphics/SVG/1.1/DTD/svg11.dtd">
<!-- Creator: CorelDRAW X7 -->
<svg xmlns="http://www.w3.org/2000/svg" xml:space="preserve" width="3.86in" height="0.928in" version="1.1" style="shape-rendering:geometricPrecision; text-rendering:geometricPrecision; image-rendering:optimizeQuality; fill-rule:evenodd; clip-rule:evenodd"
viewBox="0 0 3860 928"
 xmlns:xlink="http://www.w3.org/1999/xlink">
 <defs>
  <style type="text/css">
   <![CDATA[
    .fil2 {fill:#A37953}
    .fil1 {fill:#A9C53D}
    .fil0 {fill:#B1D2DB}
   ]]>
  </style>
 </defs>
 <g id="Layer_x0020_1">
  <metadata id="CorelCorpID_0Corel-Layer"/>
  <g id="_1790831513360">
   <g>
    <path class="fil0" d="M2612 376c37,-56 82,-84 134,-84 80,0 140,35 180,103 8,-11 19,-24 31,-37 12,-13 32,-27 59,-43 27,-15 54,-23 83,-23 63,0 116,25 158,73 43,49 64,129 64,241l0 207c0,18 0,32 -2,41 -1,9 -5,20 -11,31 -10,22 -40,32 -91,32 -50,0 -80,-11 -91,-33 -6,-12 -9,-22 -10,-31 -1,-9 -2,-23 -2,-41l0 -207c0,-69 -24,-103 -73,-103 -28,0 -47,9 -57,27 -9,18 -14,44 -14,77l0 207c0,19 -1,33 -2,42 -1,8 -5,19 -11,30 -11,22 -42,32 -93,32 -49,0 -80,-11 -91,-33 -5,-12 -9,-22 -10,-31 -1,-9 -2,-23 -2,-41l0 -207c0,-69 -24,-103 -73,-103 -48,0 -71,34 -71,103l0 209c0,19 -1,32 -2,41 -1,9 -5,20 -11,32 -12,20 -43,30 -93,30 -49,0 -80,-10 -91,-32 -5,-11 -9,-22 -10,-30 -1,-9 -2,-23 -2,-42l0 -416c0,-19 1,-32 2,-41 1,-9 5,-19 11,-31 12,-21 40,-31 85,-31 44,0 73,7 86,21 13,14 20,35 20,61z"/>
    <path class="fil0" d="M1680 606c0,-95 34,-173 100,-234 66,-62 142,-93 227,-93 85,0 161,31 226,92 66,61 99,139 99,234 0,65 -17,124 -51,174 -34,51 -76,89 -124,113 -49,24 -99,36 -151,36 -52,0 -103,-13 -152,-38 -48,-26 -90,-64 -123,-114 -34,-50 -51,-107 -51,-170zm248 85c25,19 51,29 77,29 26,0 52,-10 78,-30 26,-20 39,-49 39,-87 0,-39 -12,-68 -37,-87 -24,-19 -51,-28 -79,-28 -28,0 -55,10 -79,29 -25,20 -37,49 -37,87 0,39 13,67 38,87z"/>
    <path class="fil0" d="M970 606c0,-95 33,-173 100,-234 66,-62 142,-93 227,-93 85,0 160,31 226,92 65,61 98,139 98,234 0,65 -17,124 -51,174 -34,51 -75,89 -123,113 -49,24 -99,36 -151,36 -52,0 -103,-13 -152,-38 -49,-26 -90,-64 -124,-114 -33,-50 -50,-107 -50,-170zm248 85c25,19 50,29 76,29 27,0 53,-10 79,-30 26,-20 39,-49 39,-87 0,-39 -13,-68 -37,-87 -24,-19 -51,-28 -79,-28 -29,0 -55,10 -80,29 -24,20 -36,49 -36,87 0,39 12,67 38,87z"/>
    <path class="fil0" d="M342 295c70,0 135,31 194,93 58,63 88,135 88,217 0,83 -29,155 -88,217 -58,62 -121,93 -188,93 -67,0 -115,-19 -143,-57 -7,39 -40,58 -102,58 -50,0 -80,-10 -91,-32 -6,-12 -9,-22 -10,-31 -1,-9 -2,-23 -2,-41l0 -707c0,-18 1,-31 2,-41 1,-9 4,-19 10,-30 11,-21 42,-32 92,-32 50,0 80,11 90,32 6,12 10,23 11,32 2,9 2,22 2,40l0 247c32,-39 77,-58 135,-58zm-103 382c19,21 43,32 72,32 30,0 54,-11 75,-32 20,-21 31,-45 31,-71 0,-26 -10,-50 -29,-72 -19,-21 -44,-32 -76,-32 -31,0 -56,11 -75,33 -18,22 -28,46 -28,72 0,25 10,49 30,70z"/>
    <g>
     <path class="fil0" d="M701 104c0,-18 0,-32 2,-41 1,-9 4,-19 10,-31 11,-21 41,-32 92,-32 48,0 78,11 90,32 6,12 10,22 11,32 1,9 2,23 2,41l0 548c0,154 -207,151 -207,15l0 -564z"/>
     <path class="fil0" d="M701 814c0,18 0,32 2,41 1,9 4,20 10,31 11,22 41,32 92,32 48,0 78,-10 90,-32 6,-11 10,-22 11,-32 1,-9 2,-23 2,-41l0 -548c0,-201 -207,-150 -207,-14l0 563z"/>
    </g>
   </g>
   <g>
    <path class="fil1" d="M3611 453c55,-37 59,-46 128,-36 55,8 90,-16 121,-50 -2,27 -20,74 -30,97 -14,33 -30,55 -49,78 -68,80 -185,53 -188,41 -3,-9 25,-17 39,-23 39,-17 87,-42 109,-74 -3,4 -30,23 -38,29 -57,39 -114,70 -169,16 -6,-6 -11,-11 -17,-19 -9,-12 -18,-28 -26,-44 -9,-17 -35,-83 -36,-103 -5,53 43,131 70,175 6,9 14,18 7,24 -9,7 -44,-12 -53,-17 -23,-14 -45,-32 -61,-52 -48,-61 -48,-140 -34,-214 5,-24 27,-99 39,-112 7,77 40,115 95,140 30,13 47,30 62,55 23,38 20,54 31,89z"/>
    <path class="fil2" d="M3643 793l-49 1c-7,-7 -5,-2 -31,-50 -24,-43 -26,-108 -23,-157 0,-2 1,-5 1,-7 1,-5 1,-3 2,-5l29 1c2,19 -5,50 2,97 4,30 14,58 29,75 29,31 4,4 40,45z"/>
    <path class="fil2" d="M3555 634c-1,1 -2,10 -3,12 -1,4 -2,8 -4,11 -9,23 -33,55 -49,72 -5,5 -10,11 -15,16 -10,11 -18,21 -24,37 -13,35 -3,72 15,95 41,56 124,52 162,0 20,-28 26,-62 13,-95 -12,-30 -33,-45 -52,-69 -8,-11 -18,-23 -25,-36 -6,-10 -10,-19 -14,-31l-2 -9c-1,-2 0,-2 -2,-3z"/>
   </g>
  </g>
 </g>
</svg>
